<?xml version="1.0" encoding="utf-8"?>
<!-- Generator: Adobe Illustrator 17.0.0, SVG Export Plug-In . SVG Version: 6.00 Build 0)  -->
<!DOCTYPE svg PUBLIC "-//W3C//DTD SVG 1.1//EN" "http://www.w3.org/Graphics/SVG/1.1/DTD/svg11.dtd">
<svg version="1.1" id="Layer_3" xmlns="http://www.w3.org/2000/svg" xmlns:xlink="http://www.w3.org/1999/xlink" x="0px" y="0px"
	 width="100px" height="100px" viewBox="0 0 100 100" enable-background="new 0 0 100 100" xml:space="preserve">
<path fill="#FFFFFF" d="M1.111,73c0,0,10.667-6.111,17.111-21.222c0,0,13.111,10,30,8.778c0,0,2.444,0.222-1.556-11.444L50.333,52
	c0,0,2.333-4.556,5.667-3l0.111-4.222c0,0,4.889,6.444,7.111,6.556c0,0,10.444-11.111,9-30.556c0,0,14.444,3.333,26.667-8.556
	c0,0-11.778,11.778-7.889,22.111c0,0-14.667,4.222-9.778,23.111c0,0-19.667,7.222-13.333,20.889c0,0-15.222-12-25.333,2.222
	c0,0-9.444-14.222-23.111-3.111C19.444,77.444,14.444,69.556,1.111,73z M51.444,57.444c2.556,0.222,3.444-1.889,3.444-1.889
	c-1.667,0.889-3.333-0.222-3.333-0.222L51.444,57.444z M57.889,51.333c0,0,0.333,1.889-1.222,3.111c0,0,2.333,0.111,3.222-2.333
	L57.889,51.333z"/>
</svg>
